# Blender v2.80 (sub 75) OBJ File: 'hook.blend'
# www.blender.org
mtllib hook.mtl
o Cube
v -0.523260 0.805755 -0.016227
v -0.550482 0.879172 0.000000
v -0.523260 0.805755 0.016227
v -0.523260 0.022183 -0.585716
v -0.523260 -0.022183 -0.585716
v -0.550482 0.000000 -0.638969
v -0.523260 -0.022183 0.585716
v -0.523260 0.022183 0.585716
v -0.550482 0.000000 0.638969
v -0.523260 -0.805755 0.016227
v -0.550482 -0.879172 0.000000
v -0.523260 -0.805755 -0.016227
v -0.577722 1.085371 -0.016207
v -0.577722 1.085371 0.016207
v -0.550482 1.056912 0.000000
v -0.577722 0.022175 -0.788923
v -0.550482 0.000000 -0.768148
v -0.577722 -0.022175 -0.788923
v -0.577722 -0.022175 0.788923
v -0.550482 0.000000 0.768148
v -0.577722 0.022175 0.788923
v -0.577722 -1.085371 0.016207
v -0.577722 -1.085371 -0.016207
v -0.550482 -1.056912 0.000000
v 0.127580 0.696657 -0.016227
v 0.127580 0.696657 0.016227
v 0.154802 0.760948 0.000000
v 0.154802 0.000000 -0.553046
v 0.127580 -0.022183 -0.506425
v 0.127580 0.022183 -0.506425
v 0.154802 0.000000 0.553046
v 0.127580 0.022183 0.506425
v 0.127580 -0.022183 0.506425
v 0.127580 -0.696657 0.016227
v 0.127580 -0.696657 -0.016227
v 0.154802 -0.760948 0.000000
v 0.182068 0.924893 -0.016179
v 0.154802 0.904348 0.000000
v 0.182068 0.924893 0.016178
v 0.182068 0.022164 -0.672268
v 0.182068 -0.022164 -0.672268
v 0.154802 0.000000 -0.657267
v 0.182068 -0.022164 0.672268
v 0.182068 0.022164 0.672268
v 0.154802 0.000000 0.657267
v 0.182068 -0.924893 0.016179
v 0.154802 -0.904348 0.000000
v 0.182068 -0.924893 -0.016178
v 1.731469 0.549945 -0.016234
v 1.704254 0.623478 0.000000
v 1.731469 0.549945 0.016234
v 1.731469 0.022186 -0.399802
v 1.731469 -0.022186 -0.399802
v 1.704254 0.000000 -0.453135
v 1.731469 -0.022186 0.399802
v 1.731469 0.022186 0.399802
v 1.704254 0.000000 0.453135
v 1.731469 -0.549945 0.016234
v 1.704254 -0.623478 0.000000
v 1.731469 -0.549945 -0.016234
v 1.676988 0.720876 -0.016178
v 1.676988 0.720876 0.016178
v 1.704254 0.692889 0.000000
v 1.704254 0.000000 -0.503582
v 1.676988 -0.022164 -0.523992
v 1.676988 0.022164 -0.523992
v 1.704254 0.000000 0.503582
v 1.676988 0.022164 0.523992
v 1.676988 -0.022164 0.523992
v 1.676988 -0.720876 0.016178
v 1.676988 -0.720876 -0.016178
v 1.704254 -0.692889 0.000000
v 3.883714 0.083079 -0.016081
v 3.911067 0.151732 0.000000
v 3.883714 0.083079 0.016081
v 3.883714 0.022127 -0.060381
v 3.883714 -0.022127 -0.060381
v 3.911067 0.000000 -0.110277
v 3.883714 -0.022127 0.060381
v 3.883714 0.022127 0.060381
v 3.911067 0.000000 0.110277
v 3.883714 -0.083079 0.016081
v 3.911067 -0.151732 0.000000
v 3.883714 -0.083079 -0.016081
v 3.883852 0.180592 -0.016234
v 3.883852 0.180592 0.016234
v 3.911067 0.151732 0.000000
v 3.911067 0.000000 -0.110277
v 3.883852 -0.022186 -0.131361
v 3.883852 0.022186 -0.131361
v 3.911067 0.000000 0.110277
v 3.883852 0.022186 0.131361
v 3.883852 -0.022186 0.131361
v 3.883852 -0.180592 0.016234
v 3.883852 -0.180592 -0.016234
v 3.911067 -0.151732 0.000000
v 3.415925 0.083079 -0.016081
v 3.415925 0.083079 0.016081
v 3.388572 0.058680 0.000000
v 3.415925 0.022127 -0.060381
v 3.388572 0.000000 -0.042648
v 3.415925 -0.022127 -0.060381
v 3.415925 -0.022127 0.060381
v 3.388572 -0.000000 0.042648
v 3.415925 0.022127 0.060381
v 3.415925 -0.083079 0.016081
v 3.415925 -0.083079 -0.016081
v 3.388572 -0.058680 -0.000000
v -2.550482 0.188467 -0.186640
v -2.577835 0.133760 -0.159287
v -2.577835 0.161114 -0.131933
v -2.577835 0.161114 0.131933
v -2.577835 0.133760 0.159287
v -2.550482 0.188467 0.186640
v -1.770030 1.270642 -0.016207
v -1.835382 1.261767 0.000000
v -1.770030 1.270642 0.016207
v -2.869137 0.133760 0.131933
v -2.841784 0.133760 0.159287
v -2.841784 0.161114 0.131933
v -1.768729 0.022175 -0.923427
v -1.768729 -0.022175 -0.923427
v -1.823485 0.000000 -0.921878
v -2.577835 -0.161114 -0.131933
v -2.577835 -0.133760 -0.159287
v -2.550482 -0.188467 -0.186640
v -2.577835 -0.161114 0.131933
v -2.550482 -0.188467 0.186640
v -2.577835 -0.133760 0.159287
v -1.768729 -0.022175 0.923427
v -1.768729 0.022175 0.923427
v -1.823485 0.000000 0.921878
v -2.869137 0.133760 -0.131933
v -2.841784 0.161114 -0.131933
v -2.841784 0.133760 -0.159287
v -1.770030 -1.270642 -0.016207
v -1.770030 -1.270642 0.016207
v -1.835382 -1.261767 0.000000
v -2.841784 -0.133760 0.159287
v -2.869137 -0.133760 0.131933
v -2.841784 -0.161114 0.131933
v -2.841784 -0.133760 -0.159287
v -2.841784 -0.161114 -0.131933
v -2.869137 -0.133760 -0.131933
v -2.523242 0.848689 -0.407939
v -2.550482 0.829720 -0.391048
v -2.526618 0.874533 -0.359499
v -2.550482 0.829720 0.391048
v -2.523242 0.848689 0.407939
v -2.526618 0.874533 0.359499
v -2.525147 -0.502105 -0.636196
v -2.523242 -0.562099 -0.616228
v -2.550482 -0.535324 -0.604780
v -2.550482 0.535324 -0.604780
v -2.523242 0.562099 -0.616228
v -2.525147 0.502105 -0.636196
v -2.525147 0.502105 0.636196
v -2.523242 0.562099 0.616228
v -2.550482 0.535324 0.604780
v -2.550482 -0.535324 0.604780
v -2.523242 -0.562099 0.616228
v -2.525147 -0.502105 0.636196
v -2.523242 -0.848689 0.407939
v -2.550482 -0.829720 0.391048
v -2.526618 -0.874533 0.359499
v -2.523242 -0.848689 -0.407939
v -2.526618 -0.874533 -0.359499
v -2.550482 -0.829720 -0.391048
vt 0.379849 0.253405
vt 0.620164 0.253405
vt 0.620751 0.402281
vt 0.525380 0.496595
vt 0.474460 0.496595
vt 0.379252 0.402444
vt 0.378405 0.849620
vt 0.472719 0.754249
vt 0.621595 0.754836
vt 0.621595 0.995151
vt 0.472556 0.995748
vt 0.378405 0.900540
vt 0.155676 0.530676
vt 0.344324 0.530676
vt 0.344324 0.530676
vt 0.155676 0.530676
vt 0.339145 0.719324
vt 0.160875 0.719324
vt 0.161357 0.719324
vt 0.338664 0.719324
vt 0.518498 0.717056
vt 0.526956 0.748421
vt 0.474950 0.748410
vt 0.344324 0.535875
vt 0.344324 0.714145
vt 0.344324 0.713664
vt 0.344324 0.536357
vt 0.629249 0.597719
vt 0.724620 0.503405
vt 0.775540 0.503405
vt 0.870748 0.597556
vt 0.870151 0.746595
vt 0.629836 0.746595
vt 0.150405 0.525405
vt 0.150405 0.724595
vt 0.130271 0.744729
vt 0.130271 0.505271
vt 0.155676 0.714125
vt 0.155676 0.535855
vt 0.155676 0.536336
vt 0.155676 0.713643
vt 0.155676 0.719324
vt 0.155676 0.719324
vt 0.349595 0.724595
vt 0.369729 0.744729
vt 0.349595 0.525405
vt 0.369729 0.505271
vt 0.155676 0.714767
vt 0.155676 0.535225
vt 0.155676 0.536121
vt 0.155676 0.713869
vt 0.344324 0.719324
vt 0.344324 0.719324
vt 0.160225 0.530676
vt 0.339767 0.530676
vt 0.338869 0.530676
vt 0.161122 0.530676
vt 0.329534 0.704534
vt 0.329534 0.545466
vt 0.338389 0.536611
vt 0.338389 0.713389
vt 0.344324 0.535233
vt 0.344324 0.714775
vt 0.344324 0.713878
vt 0.344324 0.536131
vt 0.339775 0.719324
vt 0.160233 0.719324
vt 0.161131 0.719324
vt 0.338878 0.719324
vt 0.182377 0.551401
vt 0.317610 0.551401
vt 0.308135 0.551401
vt 0.191837 0.551401
vt 0.323599 0.557390
vt 0.323599 0.692623
vt 0.323599 0.683163
vt 0.323599 0.566864
vt 0.227373 0.585944
vt 0.272627 0.585944
vt 0.272627 0.585944
vt 0.227373 0.585944
vt 0.176401 0.692610
vt 0.176401 0.557377
vt 0.176401 0.566837
vt 0.176401 0.683135
vt 0.317623 0.698599
vt 0.182390 0.698599
vt 0.191865 0.698599
vt 0.308163 0.698599
vt 0.272627 0.664055
vt 0.227373 0.664055
vt 0.227373 0.664055
vt 0.272627 0.664055
vt 0.170466 0.545466
vt 0.161611 0.536611
vt 0.170466 0.704534
vt 0.161611 0.713389
vt 0.289055 0.602373
vt 0.289055 0.647627
vt 0.289055 0.647627
vt 0.289055 0.602373
vt 0.228216 0.603216
vt 0.271784 0.603216
vt 0.271784 0.646784
vt 0.228216 0.646784
vt 0.193673 0.568673
vt 0.193673 0.681327
vt 0.193673 0.681327
vt 0.193673 0.568673
vt 0.210944 0.647627
vt 0.210944 0.602373
vt 0.210944 0.602373
vt 0.210945 0.647627
vt 0.518355 0.719159
vt 0.594159 0.643355
vt 0.623421 0.651956
vt 0.306327 0.681327
vt 0.306327 0.681327
vt 0.306327 0.568673
vt 0.306327 0.568673
vt 0.425500 0.607454
vt 0.504485 0.550475
vt 0.574500 0.642546
vt 0.495515 0.699526
vt 0.416060 0.598040
vt 0.473040 0.541061
vt 0.473040 0.541061
vt 0.416061 0.598040
vt 0.464779 0.996347
vt 0.387756 0.996347
vt 0.378375 0.908906
vt 0.378405 0.004849
vt 0.527444 0.004252
vt 0.621595 0.099460
vt 0.621595 0.150380
vt 0.527281 0.245751
vt 0.378405 0.245164
vt 0.583939 0.651959
vt 0.526960 0.708940
vt 0.526960 0.708939
vt 0.583939 0.651960
vt 0.487327 0.707687
vt 0.417313 0.637673
vt 0.417313 0.637673
vt 0.487327 0.707687
vt 0.783906 0.503375
vt 0.871347 0.512756
vt 0.871347 0.589779
vt 0.481502 0.532944
vt 0.473044 0.501579
vt 0.525050 0.501590
vt 0.407518 0.631212
vt 0.493788 0.717482
vt 0.473748 0.748410
vt 0.376590 0.651252
vt 0.481645 0.530841
vt 0.405841 0.606645
vt 0.376579 0.598044
vt 0.533339 0.503248
vt 0.622099 0.512885
vt 0.622100 0.592009
vt 0.592482 0.618788
vt 0.506212 0.532518
vt 0.526252 0.501590
vt 0.623410 0.598748
vt 0.466661 0.746751
vt 0.377900 0.737115
vt 0.377901 0.657991
vt 0.592056 0.618601
vt 0.623421 0.650763
vt 0.512673 0.542313
vt 0.582688 0.612327
vt 0.582687 0.612327
vt 0.512673 0.542313
vt 0.407944 0.631399
vt 0.376579 0.599237
vt 0.339125 0.530676
vt 0.160855 0.530676
vt 0.875000 0.747018
vt 0.868102 0.750000
vt 0.628643 0.750000
vt 0.625000 0.746820
vt 0.621356 0.250000
vt 0.625000 0.253180
vt 0.375000 0.252982
vt 0.381898 0.250000
vt 0.338643 0.530676
vt 0.161336 0.530676
vt 0.494486 0.714846
vt 0.589846 0.646053
vt 0.589846 0.646053
vt 0.868941 0.590620
vt 0.875000 0.597979
vt 0.582687 0.636639
vt 0.581658 0.651960
vt 0.625000 0.597944
vt 0.629031 0.592624
vt 0.410154 0.603947
vt 0.410154 0.603947
vt 0.478947 0.535154
vt 0.478947 0.535154
vt 0.625000 0.402056
vt 0.620969 0.407376
vt 0.502674 0.708940
vt 0.487327 0.705432
vt 0.472979 1.000000
vt 0.465620 0.993941
vt 0.512673 0.542313
vt 0.505514 0.535154
vt 0.410154 0.630514
vt 0.417313 0.637673
vt 0.774513 0.500000
vt 0.781500 0.504216
vt 0.625000 0.650287
vt 0.624940 0.652178
vt 0.375000 0.653365
vt 0.376567 0.653800
vt 0.474625 0.750000
vt 0.474737 0.748565
vt 0.625000 0.596635
vt 0.623433 0.596200
vt 0.525375 0.500000
vt 0.525263 0.501435
vt 0.475487 0.500000
vt 0.468500 0.495784
vt 0.379216 0.906500
vt 0.375000 0.899513
vt 0.129693 0.500000
vt 0.370575 0.500000
vt 0.375000 0.246357
vt 0.375000 0.006898
vt 0.625000 0.753644
vt 0.625000 0.993102
vt 0.619838 0.657396
vt 0.532396 0.744838
vt 0.534380 0.006059
vt 0.620784 0.093500
vt 0.717791 0.504916
vt 0.379916 0.842791
vt 0.467624 0.754031
vt 0.532209 0.495084
vt 0.620084 0.157209
vt 0.532376 0.245969
vt 0.381059 0.409380
vt 0.380162 0.592604
vt 0.467604 0.505162
vt 0.472944 0.750000
vt 0.621820 0.750000
vt 0.525287 0.750000
vt 0.377982 0.000000
vt 0.527021 0.000000
vt 0.375000 0.847766
vt 0.625000 0.100487
vt 0.625000 0.152234
vt 0.375000 0.402021
vt 0.417313 0.613361
vt 0.512673 0.544568
vt 0.589846 0.619486
vt 0.589846 0.619486
vt 0.494486 0.714846
vt 0.418342 0.598040
vt 0.497326 0.541061
vt 0.478947 0.535154
vt 0.410154 0.603947
vn 0.4452 -0.7909 0.4198
vn 0.4094 -0.3055 0.8596
vn 0.0341 -0.2926 0.9556
vn -0.3237 -0.4830 0.8135
vn -0.3491 -0.6629 0.6623
vn 0.0187 -0.9076 0.4194
vn -0.3237 -0.4830 -0.8135
vn 0.0341 -0.2926 -0.9556
vn 0.4094 -0.3055 -0.8596
vn 0.4452 -0.7909 -0.4198
vn 0.0187 -0.9076 -0.4194
vn -0.3491 -0.6629 -0.6623
vn -0.9802 0.0000 -0.1980
vn -0.9945 0.1043 0.0000
vn -0.8824 0.4706 0.0000
vn -0.8491 0.0000 -0.5282
vn 0.5430 -0.3097 0.7805
vn 0.6123 -0.6596 0.4359
vn -0.4464 -0.7338 0.5119
vn -0.3979 -0.3484 0.8487
vn -0.9901 0.0991 -0.0991
vn -0.9008 0.3465 -0.2615
vn -0.8847 0.1671 -0.4352
vn 0.6123 0.6596 0.4359
vn 0.5430 0.3097 0.7805
vn -0.3979 0.3484 0.8487
vn -0.4464 0.7338 0.5119
vn 0.0341 0.2926 -0.9556
vn -0.3237 0.4830 -0.8135
vn -0.3491 0.6629 -0.6623
vn 0.0187 0.9076 -0.4194
vn 0.4452 0.7909 -0.4198
vn 0.4094 0.3055 -0.8596
vn 0.9847 0.0000 -0.1743
vn 0.9959 -0.0903 0.0000
vn 0.9146 -0.4042 0.0000
vn 0.8847 0.0000 -0.4662
vn 0.6123 -0.6596 -0.4359
vn 0.5430 -0.3097 -0.7805
vn -0.3979 -0.3484 -0.8487
vn -0.4464 -0.7338 -0.5119
vn -0.9945 -0.1043 0.0000
vn -0.8824 -0.4706 0.0000
vn 0.9847 0.0000 0.1743
vn 0.8847 0.0000 0.4662
vn 0.9959 0.0903 0.0000
vn 0.9146 0.4042 0.0000
vn -0.2811 -0.8545 -0.4369
vn -0.2726 -0.3223 -0.9065
vn 0.4009 -0.3067 -0.8632
vn 0.4352 -0.7958 -0.4209
vn -0.9802 0.0000 0.1980
vn -0.8491 0.0000 0.5282
vn -0.2726 0.3223 -0.9065
vn -0.2811 0.8545 -0.4368
vn 0.4352 0.7958 -0.4209
vn 0.4009 0.3067 -0.8632
vn 0.9847 0.0000 0.1740
vn 0.9959 0.0901 0.0000
vn 0.9129 0.4080 0.0000
vn 0.8826 0.0000 0.4700
vn -0.2811 0.8545 0.4369
vn -0.2726 0.3223 0.9065
vn 0.4009 0.3067 0.8632
vn 0.4352 0.7958 0.4209
vn -0.2726 -0.3223 0.9065
vn -0.2811 -0.8545 0.4368
vn 0.4352 -0.7958 0.4209
vn 0.4009 -0.3067 0.8632
vn 0.5447 0.3092 -0.7796
vn 0.6140 0.6585 -0.4350
vn 0.4536 0.7866 -0.4188
vn 0.4168 0.3045 -0.8565
vn 0.6140 0.6585 0.4350
vn 0.5447 0.3092 0.7796
vn 0.4168 0.3045 0.8565
vn 0.4536 0.7866 0.4188
vn 0.4726 -0.3295 0.8173
vn 0.5329 -0.7008 0.4742
vn 0.3603 -0.8284 0.4288
vn 0.3375 -0.3147 0.8871
vn 0.6140 -0.6585 -0.4350
vn 0.5447 -0.3092 -0.7796
vn 0.4168 -0.3045 -0.8565
vn 0.4536 -0.7866 -0.4188
vn 0.5447 -0.3092 0.7796
vn 0.6140 -0.6585 0.4350
vn 0.4536 -0.7866 0.4188
vn 0.4168 -0.3045 0.8565
vn 0.4726 0.3295 -0.8173
vn 0.5329 0.7008 -0.4742
vn 0.3603 0.8284 -0.4288
vn 0.3375 0.3147 -0.8871
vn 0.9847 0.0000 -0.1740
vn 0.8826 0.0000 -0.4700
vn 0.9959 -0.0901 0.0000
vn 0.9129 -0.4080 0.0000
vn 0.5329 -0.7008 -0.4742
vn 0.4726 -0.3295 -0.8173
vn 0.3375 -0.3147 -0.8871
vn 0.3603 -0.8284 -0.4288
vn 0.8668 0.0000 0.4986
vn 0.8992 -0.4375 0.0000
vn 0.8668 0.0000 -0.4986
vn 0.8992 0.4375 0.0000
vn 0.3539 0.0000 0.9353
vn 0.3402 0.1778 0.9234
vn 0.6706 -0.4026 0.6230
vn 0.9723 0.0000 0.2335
vn 0.5329 0.7008 0.4742
vn 0.4726 0.3295 0.8173
vn 0.3375 0.3147 0.8871
vn 0.3603 0.8284 0.4288
vn -0.9901 0.0991 0.0991
vn -0.9008 0.3465 0.2615
vn 0.6296 0.0000 0.7769
vn 0.4508 0.0000 0.8926
vn 0.3402 -0.1778 0.9234
vn 0.6706 0.4026 0.6230
vn -0.8756 -0.3416 -0.3416
vn -0.8756 -0.3416 0.3416
vn -0.8756 0.3416 0.3416
vn -0.8756 0.3416 -0.3416
vn -0.5013 -0.8269 -0.2549
vn -0.5013 -0.8269 0.2549
vn -0.3416 -0.8756 0.3416
vn -0.3416 -0.8756 -0.3416
vn -0.2882 -0.9576 0.0000
vn -0.6084 -0.7609 0.2254
vn -0.6084 -0.7609 -0.2254
vn 0.4452 0.7909 0.4198
vn 0.0187 0.9076 0.4194
vn -0.3491 0.6629 0.6623
vn -0.3237 0.4830 0.8135
vn 0.0341 0.2926 0.9556
vn 0.4094 0.3055 0.8596
vn -0.5013 0.8269 0.2549
vn -0.5013 0.8269 -0.2549
vn -0.3416 0.8756 -0.3416
vn -0.3416 0.8756 0.3416
vn -0.5013 0.2549 -0.8269
vn -0.5013 -0.2549 -0.8269
vn -0.3416 -0.3416 -0.8756
vn -0.3416 0.3416 -0.8756
vn -0.6084 0.7609 -0.2254
vn -0.6084 0.7609 0.2254
vn -0.2882 0.9576 0.0000
vn -0.9901 -0.0991 0.0991
vn -0.9008 -0.3465 0.2615
vn -0.8847 -0.1671 0.4352
vn -0.9901 -0.0991 -0.0991
vn -0.8847 -0.1671 -0.4352
vn -0.9008 -0.3465 -0.2615
vn -0.4981 -0.1536 0.8534
vn -0.1888 0.0000 0.9820
vn -0.4981 0.1536 0.8534
vn -0.8847 0.1671 0.4352
vn -0.4981 0.1536 -0.8534
vn -0.1888 0.0000 -0.9820
vn -0.4981 -0.1536 -0.8534
vn -0.5013 -0.2549 0.8269
vn -0.5013 0.2549 0.8269
vn -0.3416 0.3416 0.8756
vn -0.3416 -0.3416 0.8756
vn 0.6123 0.6596 -0.4359
vn 0.5430 0.3097 -0.7805
vn -0.4464 0.7338 -0.5119
vn -0.3979 0.3484 -0.8487
usemtl Material
s 1
f 22/1/1 19/2/2 130/3/3 161/4/4 163/5/5 137/6/6
f 152/7/7 122/8/8 18/9/9 23/10/10 136/11/11 166/12/12
f 28/13/13 27/14/14 38/15/15 42/16/16
f 7/17/17 10/18/18 34/19/19 33/20/20
f 109/21/21 146/22/22 154/23/23
f 3/24/24 8/25/25 32/26/26 26/27/27
f 121/28/28 155/29/29 145/30/30 115/31/31 13/32/32 16/33/33
f 6/34/34 11/35/35 24/36/36 17/37/37
f 12/38/38 5/39/39 29/40/40 35/41/41
f 36/42/42 28/13/13 42/16/16 47/43/43
f 11/35/35 9/44/44 20/45/45 24/36/36
f 9/44/44 2/46/46 15/47/47 20/45/45
f 2/46/46 6/34/34 17/37/37 15/47/47
f 48/48/48 41/49/49 65/50/50 71/51/51
f 27/14/14 31/52/52 45/53/53 38/15/15
f 31/52/52 36/42/42 47/43/43 45/53/53
f 40/54/54 37/55/55 61/56/56 66/57/57
f 57/58/58 50/59/59 63/60/60 67/61/61
f 39/62/62 44/63/63 68/64/64 62/65/65
f 43/66/66 46/67/67 70/68/68 69/69/69
f 52/70/70 49/71/71 85/72/72 90/73/73
f 51/74/74 56/75/75 92/76/76 86/77/77
f 76/78/78 73/79/79 97/80/80 100/81/81
f 60/82/82 53/83/83 89/84/84 95/85/85
f 55/86/86 58/87/87 94/88/88 93/89/89
f 79/90/90 82/91/91 106/92/92 103/93/93
f 50/59/59 54/94/94 64/95/95 63/60/60
f 54/94/94 59/96/96 72/97/97 64/95/95
f 59/96/96 57/58/58 67/61/61 72/97/97
f 75/98/98 80/99/99 105/100/100 98/101/101
f 101/102/102 99/103/103 104/104/104 108/105/105
f 78/106/106 83/107/107 96/108/108 88/109/109
f 84/110/110 77/111/111 102/112/112 107/113/113
f 109/114/21 114/115/114 148/116/115 146/22/22
f 83/107/107 81/117/116 91/118/117 96/108/108
f 81/117/116 74/119/118 87/120/119 91/118/117
f 74/119/118 78/106/106 88/109/109 87/120/119
f 144/121/120 140/122/121 118/123/122 133/124/123
f 124/125/124 127/126/125 141/127/126 143/128/127
f 138/129/128 165/130/129 167/131/130
f 14/132/131 117/133/132 149/134/133 158/135/134 131/136/135 21/137/136
f 112/138/137 111/139/138 134/140/139 120/141/140
f 110/142/141 125/143/142 142/144/143 135/145/144
f 147/146/145 150/147/146 116/148/147
f 128/149/148 164/150/149 160/151/150
f 126/152/151 109/153/21 154/154/23 153/155/152
f 128/156/148 126/157/151 168/158/153 164/150/149
f 162/159/154 132/160/155 157/161/156
f 114/162/114 128/163/148 160/164/150 159/165/157
f 156/166/158 123/167/159 151/168/160
f 114/169/114 159/165/157 148/170/115
f 129/171/161 113/172/162 119/173/163 139/174/164
f 126/175/151 153/155/152 168/176/153
f 1/177/165 2/46/46 3/24/24
f 4/178/166 5/39/39 6/34/34
f 7/17/17 8/25/25 9/44/44
f 10/18/18 11/35/35 12/38/38
f 13/32/32 14/179/131 15/180/47
f 16/33/33 17/181/37 18/182/9
f 19/2/2 20/183/45 21/184/136
f 22/1/1 23/185/10 24/186/36
f 25/187/167 26/27/27 27/14/14
f 28/13/13 29/40/40 30/188/168
f 31/52/52 32/26/26 33/20/20
f 34/19/19 35/41/41 36/42/42
f 37/55/55 38/15/15 39/62/62
f 40/54/54 41/49/49 42/16/16
f 43/66/66 44/63/63 45/53/53
f 46/67/67 47/43/43 48/48/48
f 49/71/71 50/59/59 51/74/74
f 52/70/70 53/83/83 54/94/94
f 55/86/86 56/75/75 57/58/58
f 58/87/87 59/96/96 60/82/82
f 61/56/56 62/65/65 63/60/60
f 64/95/95 65/50/50 66/57/57
f 67/61/61 68/64/64 69/69/69
f 70/68/68 71/51/51 72/97/97
f 73/79/79 74/119/118 75/98/98
f 76/78/78 77/111/111 78/106/106
f 79/90/90 80/99/99 81/117/116
f 82/91/91 83/107/107 84/110/110
f 85/72/72 86/77/77 87/120/119
f 88/109/109 89/84/84 90/73/73
f 91/118/117 92/76/76 93/89/89
f 94/88/88 95/85/85 96/108/108
f 97/80/80 98/101/101 99/103/103
f 100/81/81 101/102/102 102/112/112
f 103/93/93 104/104/104 105/100/100
f 106/92/92 107/113/113 108/105/105
f 109/153/21 110/142/141 111/189/138
f 112/138/137 113/190/162 114/191/114
f 115/31/31 116/192/147 117/193/132
f 118/123/122 119/194/163 120/195/140
f 121/28/28 122/196/8 123/197/159
f 124/125/124 125/198/142 126/199/151
f 127/126/125 128/200/148 129/201/161
f 130/3/3 131/202/135 132/203/155
f 133/124/123 134/204/139 135/205/144
f 136/11/11 137/206/6 138/207/128
f 139/174/164 140/208/121 141/209/126
f 142/144/143 143/210/127 144/211/120
f 145/30/30 146/212/22 147/213/145
f 148/170/115 149/214/133 150/215/146
f 151/168/160 152/216/7 153/217/152
f 154/23/23 155/218/29 156/219/158
f 157/161/156 158/220/134 159/221/157
f 160/151/150 161/222/4 162/223/154
f 163/5/5 164/224/149 165/225/129
f 166/12/12 167/226/130 168/227/153
f 15/47/47 17/37/37 16/228/33 13/229/32
f 19/2/2 22/1/1 24/186/36 20/183/45
f 14/132/131 21/137/136 20/230/45 15/231/47
f 23/10/10 18/9/9 17/232/37 24/233/36
f 1/177/165 4/178/166 6/34/34 2/46/46
f 9/44/44 11/35/35 10/18/18 7/17/17
f 2/46/46 9/44/44 8/25/25 3/24/24
f 11/35/35 6/34/34 5/39/39 12/38/38
f 27/14/14 28/13/13 30/188/168 25/187/167
f 33/20/20 34/19/19 36/42/42 31/52/52
f 26/27/27 32/26/26 31/52/52 27/14/14
f 35/41/41 29/40/40 28/13/13 36/42/42
f 4/178/166 30/188/168 29/40/40 5/39/39
f 34/19/19 10/18/18 12/38/38 35/41/41
f 32/26/26 8/25/25 7/17/17 33/20/20
f 25/187/167 1/177/165 3/24/24 26/27/27
f 37/55/55 40/54/54 42/16/16 38/15/15
f 45/53/53 47/43/43 46/67/67 43/66/66
f 38/15/15 45/53/53 44/63/63 39/62/62
f 47/43/43 42/16/16 41/49/49 48/48/48
f 63/60/60 64/95/95 66/57/57 61/56/56
f 69/69/69 70/68/68 72/97/97 67/61/61
f 62/65/65 68/64/64 67/61/61 63/60/60
f 71/51/51 65/50/50 64/95/95 72/97/97
f 43/66/66 69/69/69 68/64/64 44/63/63
f 61/56/56 37/55/55 39/62/62 62/65/65
f 65/50/50 41/49/49 40/54/54 66/57/57
f 70/68/68 46/67/67 48/48/48 71/51/51
f 49/71/71 52/70/70 54/94/94 50/59/59
f 57/58/58 59/96/96 58/87/87 55/86/86
f 50/59/59 57/58/58 56/75/75 51/74/74
f 59/96/96 54/94/94 53/83/83 60/82/82
f 87/120/119 88/109/109 90/73/73 85/72/72
f 93/89/89 94/88/88 96/108/108 91/118/117
f 86/77/77 92/76/76 91/118/117 87/120/119
f 95/85/85 89/84/84 88/109/109 96/108/108
f 55/86/86 93/89/89 92/76/76 56/75/75
f 85/72/72 49/71/71 51/74/74 86/77/77
f 89/84/84 53/83/83 52/70/70 90/73/73
f 94/88/88 58/87/87 60/82/82 95/85/85
f 73/79/79 76/78/78 78/106/106 74/119/118
f 81/117/116 83/107/107 82/91/91 79/90/90
f 74/119/118 81/117/116 80/99/99 75/98/98
f 83/107/107 78/106/106 77/111/111 84/110/110
f 99/103/103 101/102/102 100/81/81 97/80/80
f 103/93/93 106/92/92 108/105/105 104/104/104
f 98/101/101 105/100/100 104/104/104 99/103/103
f 107/113/113 102/112/112 101/102/102 108/105/105
f 76/78/78 100/81/81 102/112/112 77/111/111
f 106/92/92 82/91/91 84/110/110 107/113/113
f 105/100/100 80/99/99 79/90/90 103/93/93
f 97/80/80 73/79/79 75/98/98 98/101/101
f 115/31/31 145/30/30 147/146/145 116/148/147
f 146/22/22 148/116/115 150/234/146 147/235/145
f 149/134/133 117/133/132 116/236/147 150/237/146
f 153/155/152 154/154/23 156/166/158 151/168/160
f 155/29/29 121/28/28 123/197/159 156/238/158
f 122/8/8 152/7/7 151/239/160 123/240/159
f 159/165/157 160/164/150 162/159/154 157/161/156
f 161/4/4 130/3/3 132/203/155 162/241/154
f 131/136/135 158/135/134 157/242/156 132/243/155
f 166/12/12 136/11/11 138/129/128 167/131/130
f 137/6/6 163/5/5 165/225/129 138/244/128
f 164/150/149 168/158/153 167/245/130 165/246/129
f 18/9/9 122/8/8 121/247/28 16/248/33
f 154/23/23 146/22/22 145/249/30 155/218/29
f 117/133/132 14/132/131 13/250/32 115/251/31
f 152/7/7 166/12/12 168/227/153 153/252/152
f 163/5/5 161/4/4 160/151/150 164/150/149
f 158/135/134 149/134/133 148/253/115 159/254/157
f 130/3/3 19/2/2 21/184/136 131/202/135
f 22/1/1 137/6/6 136/255/11 23/185/10
f 111/139/138 112/138/137 114/115/114 109/114/21
f 144/121/120 133/124/123 135/205/144 142/256/143
f 118/123/122 140/122/121 139/257/164 119/194/163
f 119/173/163 113/172/162 112/258/137 120/259/140
f 110/142/141 135/145/144 134/260/139 111/189/138
f 127/126/125 124/125/124 126/157/151 128/156/148
f 140/122/121 144/121/120 143/261/127 141/262/126
f 113/172/162 129/171/161 128/163/148 114/162/114
f 133/124/123 118/123/122 120/195/140 134/204/139
f 125/143/142 110/142/141 109/153/21 126/152/151
f 141/127/126 127/126/125 129/201/161 139/263/164
f 124/125/124 143/128/127 142/264/143 125/198/142
f 4/178/166 1/177/165 25/187/167 30/188/168
